PathFileType	4	(X/Y/Z)	C:/Users/beibeiliu/ov580/test_trc\sequence.35_training_dense_left.trc
DataRate	CameraRate	NumFrames	NumMarkers	Units	OrigDataRate	OrigDataStartFrame	OrigNumFrames
120	120	16	19	mm	120	142	283
Frame#	Time	ThumbCMC			ThumbMCP			ThumbIP			ThumbTip			IndexMCP			IndexPIP			IndexTip			MiddleMCP			MiddlePIP			MiddleTip			RingMCP			RingPIP			RingTip			PinkyMCP			PinkyPIP			PinkyTip			BackHand1			BackHand2			BackHand3	
		X0	Y0	Z0	X1	Y1	Z1	X2	Y2	Z2	X3	Y3	Z3	X4	Y4	Z4	X5	Y5	Z5	X6	Y6	Z6	X7	Y7	Z7	X8	Y8	Z8	X9	Y9	Z9	X10	Y10	Z10	X11	Y11	Z11	X12	Y12	Z12	X13	Y13	Z13	X14	Y14	Z14	X15	Y15	Z15	X16	Y16	Z16	X17	Y17	Z17	X18	Y18	Z18	
141	1.175	-189.594	84.0486	62.5694	-160.012	80.9631	59.0078	-136.992	80.9484	51.402	-120.611	71.0953	45.2678	-160.069	66.3406	9.92343	-134.652	57.7757	15.0773	-120.125	53.4445	42.1183	-168.338	41.3614	2.70418	-135.26	38.4533	8.48838	-133.377	42.7041	38.0819	-174.407	23.0449	6.95412	-148.404	20.4233	10.1857	-140.049	27.3672	33.8882	-182.993	9.25462	19.5483	-161.43	5.62565	16.4035	-142.4	20.9204	34.0461	-209.061	38.2406	35.3908	-226.062	43.3495	55.5084	-212.818	65.5574	43.2359	
142	1.18333	-186.442	87.7335	66.9546	-156.528	80.9512	61.6166	-134.005	76.3132	53.5435	-117.102	66.4218	46.6563	-158.85	66.4976	10.584	-133.449	53.1799	17.2853	-121.647	47.6401	39.6937	-165.294	45.4974	2.99444	-138.837	34.1258	7.84119	-137.255	38.0301	41.9553	-177.607	29.7373	9.23461	-151.232	20.3133	10.3024	-141.838	32.5336	36.9083	-186.837	11.6234	20.5412	-164.277	9.41043	15.9241	-145.408	15.7341	33.5947	-210.963	44.8062	37.9972	-227.021	47.8459	56.5073	-212.719	70.1944	45.3683	
143	1.19167	-182.222	88.4816	67.5626	-153.538	78.463	64.2693	-131.65	73.9667	57.6504	-113.978	63.7661	50.5528	-154.834	66.8543	14.3702	-131.148	53.5458	19.5176	-119.647	46.7122	44.128	-164.028	43.4683	4.40931	-137.595	32.8669	12.2392	-134.408	39.4596	43.7535	-178.204	31.1367	11.4777	-149.268	20.437	13.6177	-140.538	26.6406	35.3114	-190.249	16.7471	25.6264	-165.93	10.2826	17.5676	-146.721	16.8443	37.843	-209.597	50.8619	37.2284	-225.668	53.1579	59.3621	-208.305	73.6493	48.0257	
144	1.2	-178.338	88.9347	71.7617	-147.049	80.9694	67.4154	-126.927	72.2808	60.5181	-107.047	61.9272	54.1486	-151.16	67.9326	16.9082	-126.124	55.0467	25.0207	-116.096	46.0739	51.2485	-162.592	47.1415	8.0622	-136.592	34.1503	12.3612	-131.731	39.4163	46.4232	-172.264	33.526	10.1957	-151.029	23.4041	12.217	-139.783	25.6838	41.7758	-187.229	23.4575	25.544	-164.823	11.0439	20.3027	-148.335	14.3106	34.7338	-206.851	55.1211	40.0262	-223.623	59.7896	60.4996	-201.978	79.4849	47.7746	
145	1.20833	-171.622	90.3124	72.3888	-144.815	78.8701	71.6073	-123.235	68.8942	64.0189	-106.389	57.6712	59.0062	-144.261	66.4685	20.0752	-124.845	52.7785	26.8058	-116.009	44.014	50.6912	-160.271	48.4531	11.547	-135.665	33.2172	15.5489	-130.009	37.2442	50.7519	-173.023	38.9753	15.0049	-148.888	23.206	15.493	-139.367	26.3366	42.8596	-187.355	21.7684	21.8723	-166.883	11.131	20.4446	-148.385	13.268	37.6463	-205.522	55.7337	42.7794	-222.527	62.9734	61.0086	-199.351	83.6042	52.5168	
146	1.21667	-172.624	87.0083	75.0368	-144.335	74.9635	74.1354	-121.561	69.2907	71.8693	-108.166	53.2124	63.4795	-143.702	65.1749	21.7972	-122.617	53.0523	28.7763	-116.061	39.2851	58.2847	-156.862	52.1491	12.2803	-134.057	32.4831	17.5497	-129.859	32.9739	49.3177	-170.018	38.2667	12.9169	-145.615	22.5289	18.278	-139.269	22.4507	40.9967	-186.615	24.8492	24.1279	-166.077	14.9619	19.3408	-146.583	16.2875	38.3106	-203.296	59.5376	43.9369	-219.311	66.8586	60.3689	-199.101	84.9446	52.1086	
147	1.225	-167.503	86.6917	75.8568	-139.779	74.8257	78.3352	-122.885	61.6656	70.3679	-103.397	48.9844	66.5168	-139.79	67.3582	23.6882	-121.227	48.107	30.991	-116.999	36.6733	56.3356	-155.198	47.7176	13.2666	-133.011	31.1598	17.9583	-130.044	29.2433	49.6653	-171.272	37.3275	15.2845	-146.129	23.5288	18.8693	-141.207	21.033	47.0033	-187.478	25.5322	22.6078	-163.08	14.8051	22.115	-148.584	15.4149	43.2582	-201.5	59.5066	40.6486	-217.174	72.0575	64.1915	-191.702	88.5524	55.412	
148	1.23333	-164.006	88.355	79.097	-137.244	70.3171	77.2881	-120.52	58.2374	72.3415	-102.344	43.1192	69.2464	-139.454	63.7373	24.6849	-122.58	41.6074	31.1424	-121.053	28.588	58.6102	-151.672	50.483	14.3733	-131.665	28.4056	20.9665	-134.986	25.4868	53.6307	-169.467	36.3895	14.4205	-147.302	21.5269	19.4886	-141.625	23.3893	48.1495	-185.389	29.1127	22.6983	-163.16	15.5164	22.829	-152.02	16.112	47.059	-198.256	63.2071	40.1867	-213.708	78.2488	63.7356	-188.036	89.2254	53.7186	
149	1.24167	-161.51	85.4633	79.1493	-135.529	68.1802	82.4182	-115.743	52.5576	73.6636	-102.718	35.1924	66.7747	-133.716	58.1629	25.3107	-123.204	37.4857	30.9713	-121.516	25.9776	61.5454	-150.303	50.825	16.3345	-134.011	24.5986	20.136	-135.457	25.8898	57.12	-165.676	40.8738	14.9473	-148.535	19.3787	21.3506	-146.351	17.3466	46.8066	-185.598	32.9156	23.937	-169.132	14.6461	22.856	-157.853	16.6013	48.2898	-197.148	67.2765	39.7631	-211.666	78.5422	61.6909	-181.746	93.3626	55.3667	
150	1.25	-157.186	83.5414	77.881	-133.306	62.0798	79.4139	-118.01	50.0654	76.6358	-103.913	32.0318	70.4647	-134.43	58.4602	26.7914	-118.704	33.9968	34.6471	-124.577	20.1072	58.272	-150.144	46.1657	14.7537	-136.767	20.8335	24.0821	-137.635	20.4289	52.626	-162.997	41.5427	13.6405	-150.327	18.9486	21.8353	-148.86	18.6333	48.3269	-187.55	33.4194	21.0229	-169.071	15.996	25.285	-158.943	16.3342	50.608	-193.895	73.2184	43.4985	-205.839	83.3688	61.8408	-177.765	95.0277	55.7389	
151	1.25833	-150.71	84.8062	80.603	-135.473	61.2248	78.3416	-115.526	45.4165	73.7494	-108.84	27.4384	66.3949	-133.602	59.0313	27.3943	-121.687	33.0231	32.9197	-126.235	18.7117	58.6626	-151.873	48.9715	16.5545	-137.599	21.0805	20.9676	-139.6	20.253	54.4619	-165.571	41.3062	13.0996	-151.922	20.0802	21.9371	-150.478	17.1819	46.3289	-184.653	37.2573	21.0436	-172.197	17.0409	24.7626	-162.68	16.0587	47.0583	-193.024	74.9701	39.3803	-204.848	86.8276	61.0706	-175.515	92.6701	53.4402	
152	1.26667	-150.099	85.1116	81.9118	-134.722	63.0252	83.6625	-117.944	46.272	76.7825	-109.095	27.7349	68.7183	-130.337	58.5347	28.3711	-120.135	33.4596	34.3847	-124.988	18.8441	55.7329	-150.636	50.6636	15.5059	-136.859	24.0149	20.0041	-141.543	19.1631	51.5754	-166.696	47.5058	16.0222	-155.055	23.2227	19.3198	-153.932	19.9438	49.666	-189.467	40.0815	22.1292	-171.553	22.4724	24.6797	-163.364	21.4874	47.6944	-191.411	79.5061	44.8936	-199.678	94.0798	63.9348	-173.697	96.9031	58.1338	
153	1.275	-150.735	85.2263	83.1484	-131.221	61.9272	83.8984	-121.386	43.897	73.6428	-112.724	26.2123	68.5455	-136.229	60.8582	28.0477	-122.914	31.6037	33.0464	-130.247	17.8775	56.4248	-148.343	52.5337	14.3361	-141.701	24.9681	19.1812	-141.295	21.8769	51.5326	-172.656	50.0011	16.7061	-157.23	23.6379	20.2836	-153.778	21.8301	45.159	-187.374	46.1628	24.1183	-175.585	23.5362	26.3686	-166.432	22.4176	47.4405	-190.574	80.7442	43.3744	-200.858	96.7385	67.5279	-172.362	100.398	61.029	
154	1.28333	-148.878	84.9381	84.3041	-129.543	58.6052	83.0083	-118.692	38.8523	72.5395	-118.526	22.1562	63.0328	-132.078	59.4695	26.2788	-129.616	32.8478	29.9624	-132.693	19.1137	51.9839	-154.33	55.4948	15.4353	-143.134	27.8283	18.5509	-145.27	24.7177	52.6959	-169.917	56.276	18.3886	-161.993	26.7894	20.2716	-158.85	24.0768	45.9296	-192.371	51.551	25.2458	-176.346	30.1192	23.109	-170.275	25.0012	43.9245	-187.689	87.2818	48.3869	-198.243	99.8888	71.6888	-166.537	100.338	62.3135	
155	1.29167	-147.846	85.8071	88.0254	-135.571	56.6663	79.329	-123.16	38.3053	72.6051	-117.667	17.6475	60.8204	-133.217	64.1109	28.7609	-127.666	34.1511	29.738	-133.742	18.9464	52.698	-154.61	60.0925	15.4667	-145.52	29.2555	20.3258	-149.749	25.6869	49.1622	-171.16	59.817	17.3005	-165.785	32.2207	15.5967	-160.382	26.7526	43.7766	-191.265	55.7864	23.0404	-183.134	34.1101	21.5135	-171.824	25.835	41.2513	-186.454	91.7249	50.2053	-194.881	105.315	74.3203	-169.234	104.501	65.5351	
156	1.3	-145.109	83.2599	86.3859	-135.739	56.8781	79.8548	-123.425	36.2212	70.6161	-118.775	17.1208	63.3701	-138.931	61.8872	25.5646	-134.61	35.7119	26.6749	-137.963	20.1184	49.3907	-158.146	60.9006	12.9427	-151.572	32.5034	15.1557	-154.12	26.9563	48.1902	-177.211	61.8065	14.4009	-164.594	36.6262	15.2052	-163.414	28.3341	41.8847	-192.953	63.1016	27.6644	-185.966	41.8871	17.9782	-176.667	25.7534	37.1765	-186.824	92.137	51.5792	-191.424	104.671	75.5001	-166.631	102.786	64.3738	
